<?xml version="1.0" standalone="no"?>
<!DOCTYPE svg PUBLIC "-//W3C//DTD SVG 20010904//EN"
 "http://www.w3.org/TR/2001/REC-SVG-20010904/DTD/svg10.dtd">
<svg version="1.0" xmlns="http://www.w3.org/2000/svg"
 width="612.000000pt" height="408.000000pt" viewBox="0 0 612.000000 408.000000"
 preserveAspectRatio="xMidYMid meet">

<g transform="translate(0.000000,408.000000) scale(0.100000,-0.100000)"
fill="#000000" stroke="none">
<path d="M3082 3805 c-23 -7 -58 -13 -77 -13 -20 0 -46 -7 -60 -16 -22 -14
-27 -14 -71 6 -61 26 -141 29 -178 5 -14 -10 -31 -15 -36 -12 -5 3 -36 1 -68
-4 -65 -10 -192 -66 -170 -74 7 -3 -9 -6 -36 -6 -32 -1 -57 -7 -69 -18 -13
-12 -17 -13 -12 -4 6 11 -2 9 -26 -5 -19 -11 -38 -30 -44 -42 -7 -16 -19 -22
-45 -23 -65 -1 -120 -21 -120 -43 0 -6 -12 -19 -25 -29 -22 -16 -24 -16 -18
-1 5 14 3 15 -18 4 -13 -7 -46 -30 -74 -50 -27 -20 -65 -42 -82 -49 -18 -8
-33 -17 -33 -22 0 -4 -21 -11 -47 -14 -87 -13 -167 -61 -162 -97 4 -29 -2 -38
-35 -53 -37 -18 -77 -58 -119 -120 -15 -22 -27 -35 -27 -29 0 5 14 29 31 52
17 23 28 42 24 42 -3 0 -31 -23 -61 -51 -53 -51 -81 -108 -69 -140 5 -15 -11
-43 -58 -103 -21 -25 -31 -54 -39 -103 -11 -73 -17 -90 -49 -140 -28 -44 -36
-243 -13 -306 8 -23 16 -60 18 -83 3 -53 32 -98 102 -159 61 -54 109 -84 137
-85 9 0 17 -4 17 -9 0 -14 148 -97 206 -115 18 -5 26 0 44 29 12 19 20 42 17
50 -6 14 11 32 28 30 111 -15 126 -18 117 -27 -7 -7 -21 -7 -41 0 -43 15 -39
-3 7 -28 20 -12 29 -19 19 -16 -10 3 -22 6 -27 6 -5 0 -23 12 -41 27 l-32 27
8 -25 c7 -23 7 -23 -9 -4 -8 11 -16 15 -16 8 0 -6 -3 -19 -7 -29 -4 -12 -3
-15 5 -10 8 5 10 1 5 -10 -4 -12 -3 -15 5 -10 7 4 10 2 7 -6 -3 -7 3 -27 14
-44 21 -35 73 -54 146 -54 42 0 47 2 42 20 -6 25 10 27 17 3 3 -10 8 -45 11
-78 4 -33 16 -78 27 -99 15 -31 16 -37 4 -27 -22 19 -21 0 4 -49 11 -21 28
-41 38 -44 10 -3 26 -21 37 -38 26 -46 39 -54 130 -84 65 -21 108 -27 225 -33
80 -3 161 -3 180 0 19 4 28 8 20 9 -36 6 73 21 155 22 72 0 81 2 45 7 -33 5
-41 9 -28 15 10 5 25 6 33 2 8 -3 15 -2 15 2 -1 20 -21 30 -75 37 -33 4 -82
18 -110 32 -27 14 -77 32 -109 40 -33 7 -66 19 -73 25 -10 8 -20 8 -36 0 -40
-19 -152 -42 -209 -42 -30 0 -75 7 -98 15 -23 8 -45 15 -47 15 -8 0 9 -45 26
-65 9 -12 4 -8 -11 7 -15 15 -31 40 -34 55 -4 16 -19 48 -33 73 -21 36 -26 58
-26 111 0 61 3 70 35 110 26 33 36 56 41 99 6 52 5 57 -24 88 -30 31 -57 42
-57 22 0 -5 -9 -19 -21 -31 -32 -32 -28 -161 6 -189 8 -7 15 -17 15 -23 0 -6
-15 3 -33 20 -17 17 -39 33 -47 36 -13 5 -13 6 0 6 11 1 16 14 17 46 3 63 19
117 42 141 18 20 18 21 -27 57 -57 47 -101 49 -158 8 -63 -45 -96 -53 -133
-30 -34 20 -43 36 -12 19 33 -17 66 -11 116 22 36 24 62 33 104 36 54 4 58 2
121 -46 57 -43 129 -118 153 -158 8 -13 47 -20 47 -8 0 3 -10 28 -21 55 -19
44 -21 62 -16 152 3 60 12 119 22 144 15 38 83 113 103 113 5 0 17 9 26 19 10
11 23 18 30 15 7 -3 37 7 67 21 30 13 70 25 90 25 l35 0 12 90 c11 82 11 93
-6 128 -24 48 -37 117 -18 100 7 -7 11 -21 8 -31 -3 -10 5 -39 18 -64 22 -45
23 -68 5 -173 -3 -14 4 1 14 33 26 79 31 90 36 86 2 -2 -5 -33 -15 -69 -10
-36 -19 -72 -21 -80 -6 -24 132 -37 211 -20 l61 13 -5 41 c-5 39 -5 40 5 9 14
-47 28 -41 23 10 l-3 42 11 -42 c6 -24 15 -43 20 -43 12 0 38 26 38 37 0 5 7
18 16 29 15 19 15 19 11 -1 -3 -11 -8 -28 -12 -37 -6 -15 -1 -18 31 -18 24 0
74 -17 137 -46 l99 -47 67 22 c36 12 76 21 89 21 23 0 30 14 11 26 -8 5 -9 30
-5 79 4 44 2 83 -4 101 -9 24 -9 27 2 16 9 -9 12 -39 11 -101 -3 -98 4 -112
62 -125 33 -8 55 -23 55 -37 0 -5 -12 -2 -26 8 -39 25 -148 23 -204 -5 -42
-20 -43 -20 -89 -2 -25 10 -71 30 -101 44 -52 24 -128 35 -144 19 -8 -8 -24
-12 -86 -18 -25 -3 -60 -10 -78 -16 -23 -7 -79 -9 -171 -4 -128 7 -141 6 -179
-14 -23 -12 -42 -29 -42 -37 0 -12 -6 -15 -25 -10 -55 14 -157 -69 -172 -141
-15 -72 -9 -215 11 -266 16 -43 24 -51 71 -72 36 -16 59 -33 69 -54 9 -16 24
-35 33 -40 10 -6 12 -11 6 -11 -13 0 -23 9 -66 62 -22 27 -82 44 -82 23 0 -5
3 -9 8 -7 4 1 7 -5 7 -13 0 -21 -10 -19 -41 11 -26 25 -28 25 -57 10 -37 -19
-101 -92 -109 -124 -3 -12 -3 -47 -1 -77 8 -93 82 -160 187 -172 53 -5 161 17
229 48 26 12 78 32 116 45 38 13 84 33 103 44 18 10 33 17 33 15 0 -12 -92
-64 -140 -80 -67 -22 -87 -35 -68 -46 22 -12 107 -14 208 -5 63 5 116 4 157
-3 47 -9 68 -9 84 0 19 10 21 9 16 -4 -17 -44 177 -25 283 28 116 58 219 85
325 85 52 0 97 -4 100 -10 3 -6 -4 -10 -16 -10 -28 0 -161 -65 -183 -89 -14
-16 -11 -17 50 -13 35 2 113 -1 172 -7 121 -13 172 -4 234 40 35 25 36 26 67
28 11 0 34 13 52 28 30 25 31 26 25 5 -4 -12 -5 -22 -1 -22 17 0 80 32 92 48
14 16 14 16 8 -3 -4 -11 -12 -39 -17 -62 -11 -49 -53 -99 -92 -109 -16 -4 -39
0 -60 10 -19 9 -39 16 -44 16 -6 0 -14 4 -17 10 -4 7 3 7 20 0 34 -13 101 -13
126 0 17 10 65 88 57 95 -10 10 -183 -47 -209 -69 -50 -42 -98 -50 -239 -37
-193 17 -198 17 -216 -21 -14 -30 -15 -31 -9 -5 5 27 5 27 -37 21 -57 -9 -66
-18 -71 -67 -4 -39 -4 -39 -3 6 1 55 -1 55 -81 25 -32 -11 -79 -22 -105 -22
-43 -1 -47 -3 -41 -21 5 -17 2 -16 -17 5 -18 21 -20 22 -15 5 4 -11 11 -39 16
-63 5 -23 22 -68 39 -100 16 -31 30 -65 30 -74 0 -9 5 -20 12 -24 16 -10 5 65
-16 107 -22 44 -20 50 4 14 36 -53 63 -164 69 -276 4 -76 3 -110 -6 -118 -9
-8 -13 3 -18 47 -3 31 -9 68 -12 82 l-6 25 -7 -25 c-13 -41 -11 -119 4 -154 7
-18 31 -56 52 -86 l38 -53 18 54 c27 79 39 88 79 55 17 -15 36 -25 42 -23 25
8 31 35 19 89 -7 29 -16 103 -21 163 -6 80 -16 127 -35 174 -14 36 -26 69 -26
75 0 6 19 -32 41 -84 50 -119 63 -134 55 -60 -13 117 -18 257 -10 262 5 3 10
-26 11 -65 2 -44 7 -74 15 -79 8 -4 8 -8 2 -8 -7 0 -9 -19 -6 -52 4 -50 10
-59 85 -143 45 -49 60 -70 34 -45 -46 43 -64 47 -30 6 10 -12 -3 -2 -28 22
-24 23 -47 42 -50 42 -11 0 -3 -50 10 -62 11 -11 12 -9 1 11 -11 22 -8 21 31
-10 49 -39 125 -89 135 -89 4 0 0 8 -7 17 -11 13 -7 12 16 -3 36 -25 39 -26
190 -27 153 -2 193 12 250 84 22 27 48 59 59 71 10 11 19 31 19 44 0 13 3 24
7 24 4 0 11 11 14 24 3 13 9 31 12 40 4 11 0 16 -12 17 -18 0 -17 1 1 9 l20 9
-20 1 c-17 1 -16 3 8 16 33 18 35 24 5 17 -22 -4 -22 -3 2 11 16 10 19 15 10
16 -13 0 -13 1 0 10 13 9 13 10 0 10 -13 0 -13 1 0 10 8 5 11 10 6 10 -5 0 -3
7 4 15 16 19 -8 30 -48 20 -22 -5 -25 -4 -14 6 8 9 50 14 140 14 158 2 178 10
291 124 86 88 104 116 116 189 4 23 10 40 15 37 5 -3 16 16 25 42 10 27 25 64
33 83 12 25 17 70 18 160 1 69 7 147 12 174 6 28 8 65 5 84 -6 34 -6 34 -19
11 -11 -22 -12 -20 -7 18 3 24 1 48 -4 55 -6 7 -13 27 -16 43 -3 17 -9 39 -12
50 -6 17 -5 18 5 5 18 -23 5 31 -30 120 -15 41 -36 98 -46 125 -10 29 -32 64
-54 85 -20 19 -43 53 -50 75 -22 70 -57 122 -97 141 -21 10 -51 36 -68 58 -16
22 -37 42 -45 44 -10 3 -7 -4 8 -20 12 -13 22 -27 22 -31 0 -12 -34 27 -74 87
-22 32 -55 69 -74 84 -18 14 -43 45 -54 69 -38 82 -127 131 -213 120 -31 -5
-36 -3 -21 5 10 6 38 8 62 5 40 -4 43 -3 33 14 -10 19 -78 59 -100 59 -6 0
-28 15 -48 33 -36 32 -40 33 -130 35 -110 2 -136 12 -35 13 l69 1 -55 26 c-42
20 -71 26 -121 27 -37 0 -65 3 -63 7 5 8 -83 38 -113 38 -21 0 -58 -14 -72
-26 -3 -2 6 -16 20 -32 l24 -27 -28 24 c-17 16 -25 31 -22 42 10 30 -76 64
-165 64 -46 0 -80 5 -88 13 -17 15 -55 14 -110 -3z m231 -52 c-13 -2 -33 -2
-45 0 -13 2 -3 4 22 4 25 0 35 -2 23 -4z m-369 -18 c-4 -8 -11 -15 -16 -15 -6
0 -5 6 2 15 7 8 14 15 16 15 2 0 1 -7 -2 -15z m437 -2 c13 -16 12 -17 -3 -4
-17 13 -22 21 -14 21 2 0 10 -8 17 -17z m-351 -6 c0 -2 -10 -12 -22 -23 l-23
-19 19 23 c18 21 26 27 26 19z m-410 -22 c0 -3 -17 -12 -37 -20 -21 -9 -49
-26 -63 -38 l-25 -22 20 24 c26 30 105 73 105 56z m158 -2 c-10 -2 -28 -2 -40
0 -13 2 -5 4 17 4 22 1 32 -1 23 -4z m361 -10 c-7 -10 -24 -31 -38 -48 -29
-36 -61 -108 -61 -138 0 -12 -4 -27 -8 -34 -4 -6 -7 13 -7 43 0 30 2 49 4 43
2 -6 9 1 17 16 7 14 11 33 8 43 -4 12 -3 13 3 4 7 -9 15 -4 31 18 12 16 22 32
22 36 0 6 31 33 39 34 2 0 -3 -8 -10 -17z m-169 -10 c0 -2 -8 -3 -17 -2 -10 1
-35 -1 -55 -5 -22 -5 -44 -4 -55 3 -15 9 -13 10 12 5 17 -3 41 -1 55 4 22 8
60 5 60 -5z m578 -20 c-10 -2 -26 -2 -35 0 -10 3 -2 5 17 5 19 0 27 -2 18 -5z
m-1150 -10 c-10 -2 -26 -2 -35 0 -10 3 -2 5 17 5 19 0 27 -2 18 -5z m1320 0
c-10 -2 -26 -2 -35 0 -10 3 -2 5 17 5 19 0 27 -2 18 -5z m-69 -6 c-2 -1 -15
-11 -29 -22 l-25 -20 19 23 c11 12 24 22 29 22 6 0 8 -1 6 -3z m281 -37 c6
-11 8 -20 6 -20 -3 0 -10 9 -16 20 -6 11 -8 20 -6 20 3 0 10 -9 16 -20z
m-1274 -58 c-6 -6 -26 43 -25 61 0 7 7 -3 15 -22 8 -18 13 -36 10 -39z m223
39 c10 -6 -1 -8 -30 -4 -24 3 -46 7 -48 9 -10 9 65 3 78 -5z m-102 -7 c-3 -3
-12 -4 -19 -1 -8 3 -5 6 6 6 11 1 17 -2 13 -5z m-542 -9 c-22 -8 -134 -11
-123 -3 7 4 40 7 73 7 33 0 56 -2 50 -4z m345 -37 c21 -33 46 -133 30 -123 -4
3 -10 23 -14 46 -8 53 -16 65 -28 48 -7 -10 -8 -9 -4 5 4 10 1 25 -5 32 -6 8
-7 14 -3 14 5 0 16 -10 24 -22z m870 8 c0 -3 -4 -8 -10 -11 -5 -3 -10 -1 -10
4 0 6 5 11 10 11 6 0 10 -2 10 -4z m-370 -10 c0 -3 -4 -8 -10 -11 -5 -3 -10
-1 -10 4 0 6 5 11 10 11 6 0 10 -2 10 -4z m-433 -38 c-3 -8 -6 -5 -6 6 -1 11
2 17 5 13 3 -3 4 -12 1 -19z m693 -3 c-7 -8 -19 -15 -26 -15 -8 0 -23 -9 -34
-20 -15 -15 -20 -16 -20 -6 0 8 17 23 38 34 46 24 58 26 42 7z m-700 -31 c0
-8 -5 -12 -10 -9 -6 4 -8 11 -5 16 9 14 15 11 15 -7z m1297 10 c-3 -3 -12 -4
-19 -1 -8 3 -5 6 6 6 11 1 17 -2 13 -5z m60 0 c-3 -3 -12 -4 -19 -1 -8 3 -5 6
6 6 11 1 17 -2 13 -5z m-2037 -34 c0 -5 -5 -10 -11 -10 -5 0 -7 5 -4 10 3 6 8
10 11 10 2 0 4 -4 4 -10z m1330 -13 c0 -2 -9 -12 -19 -21 -13 -11 -21 -14 -26
-7 -3 6 4 15 17 20 28 12 28 12 28 8z m320 0 c0 -2 -12 -14 -27 -28 l-28 -24
24 28 c23 25 31 32 31 24z m-1773 -83 c-3 -3 -12 -4 -19 -1 -8 3 -5 6 6 6 11
1 17 -2 13 -5z m-157 -8 c0 -2 -12 -11 -27 -20 l-28 -17 24 20 c23 21 31 25
31 17z m2305 -8 c-11 -6 -23 -16 -27 -22 -5 -8 -8 -7 -8 1 0 12 28 32 45 32 6
0 1 -5 -10 -11z m-1287 -39 c-3 -8 -7 -3 -11 10 -4 17 -3 21 5 13 5 -5 8 -16
6 -23z m-198 -29 c-6 -12 -14 -19 -18 -16 -3 4 0 12 6 18 7 7 13 21 13 33 1
16 2 16 6 3 2 -9 -1 -27 -7 -38z m1247 23 c5 3 9 -3 9 -13 0 -22 -17 -16 -35
13 -13 20 -13 21 2 9 9 -8 20 -11 24 -9z m-537 -30 c-11 -17 -11 -17 -6 0 3
10 6 24 7 30 0 9 2 9 5 0 3 -7 0 -20 -6 -30z m93 30 c-7 -2 -19 -2 -25 0 -7 3
-2 5 12 5 14 0 19 -2 13 -5z m-456 -95 c-2 -18 -4 -4 -4 32 0 36 2 50 4 33 2
-18 2 -48 0 -65z m30 20 c-2 -13 -4 -3 -4 22 0 25 2 35 4 23 2 -13 2 -33 0
-45z m629 32 c0 -12 -4 -16 -9 -11 -5 5 -6 14 -3 20 10 15 12 14 12 -9z m-408
-36 c-3 -14 -5 -12 -10 9 -3 19 -2 25 4 19 6 -6 8 -18 6 -28z m-618 1 c0 -7 3
-20 6 -29 3 -9 1 -16 -5 -16 -6 0 -11 10 -11 23 0 13 -6 29 -12 36 -11 10 -10
11 5 6 9 -4 17 -13 17 -20z m1360 22 c0 -2 -10 -12 -22 -23 l-23 -19 19 23
c18 21 26 27 26 19z m10 -21 c0 -2 -8 -10 -17 -17 -16 -13 -17 -12 -4 4 13 16
21 21 21 13z m-1289 -70 c-14 -36 -22 -33 -9 5 6 16 12 28 14 26 3 -2 0 -16
-5 -31z m-323 -5 c-7 -12 -16 -21 -21 -21 -4 0 0 11 10 24 22 29 30 27 11 -3z
m1322 -8 c0 -7 -39 17 -46 28 -3 6 5 3 20 -6 14 -10 26 -19 26 -22z m-703 -10
c-3 -10 -5 -4 -5 12 0 17 2 24 5 18 2 -7 2 -21 0 -30z m42 -13 c6 -19 7 -30 2
-25 -5 6 -13 24 -17 40 -9 39 0 30 15 -15z m208 -27 c-8 -15 -26 -37 -38 -48
l-24 -20 21 25 c29 34 44 64 45 92 2 22 2 22 6 1 2 -12 -2 -34 -10 -50z m523
41 c0 -2 -9 0 -20 6 -11 6 -20 13 -20 16 0 2 9 0 20 -6 11 -6 20 -13 20 -16z
m-1143 -16 c-3 -8 -6 -5 -6 6 -1 11 2 17 5 13 3 -3 4 -12 1 -19z m1123 -4 c0
-2 -9 0 -20 6 -11 6 -20 13 -20 16 0 2 9 0 20 -6 11 -6 20 -13 20 -16z m-731
-34 c11 -24 11 -24 -3 -6 -9 11 -16 24 -16 30 0 12 5 7 19 -24z m-659 -30 c0
-15 -5 -12 -26 11 -19 22 -19 22 4 10 12 -6 22 -16 22 -21z m104 -61 c5 -4 5
-15 1 -25 -6 -17 -9 -15 -16 10 -9 33 -48 78 -60 70 -5 -3 -9 4 -9 15 0 17 7
13 38 -21 20 -24 41 -46 46 -49z m617 54 c13 -16 12 -17 -3 -4 -17 13 -22 21
-14 21 2 0 10 -8 17 -17z m-26 -23 c8 -16 15 -37 14 -47 0 -12 -3 -9 -8 8 -5
14 -14 35 -20 47 -6 12 -9 22 -7 22 3 0 12 -13 21 -30z m-532 5 c-3 -9 -8 -14
-10 -11 -3 3 -2 9 2 15 9 16 15 13 8 -4z m1597 5 c-8 -5 -19 -10 -25 -10 -5 0
-3 5 5 10 8 5 20 10 25 10 6 0 3 -5 -5 -10z m-1750 -20 c0 -5 -2 -10 -4 -10
-3 0 -8 5 -11 10 -3 6 -1 10 4 10 6 0 11 -4 11 -10z m745 -8 c-3 -3 -11 0 -18
7 -9 10 -8 11 6 5 10 -3 15 -9 12 -12z m-730 -12 c-4 -6 7 -29 24 -52 17 -23
31 -49 30 -57 0 -14 -1 -14 -6 -1 -3 8 -19 32 -35 53 -26 32 -32 67 -13 67 4
0 3 -5 0 -10z m1847 -55 c-6 -34 -13 -32 -10 4 1 16 5 28 9 26 3 -3 4 -16 1
-30z m-2652 11 c0 -2 -8 -10 -17 -17 -16 -13 -17 -12 -4 4 13 16 21 21 21 13z
m1466 -63 c-8 -15 -15 -25 -16 -21 0 12 23 58 27 54 3 -2 -2 -17 -11 -33z
m731 0 c-3 -10 -5 -4 -5 12 0 17 2 24 5 18 2 -7 2 -21 0 -30z m-1303 -18 c4
-25 5 -49 1 -54 -3 -6 -8 -35 -11 -65 -5 -48 -2 -60 20 -93 14 -21 26 -42 26
-48 0 -5 -16 16 -35 47 l-35 56 14 63 c10 44 12 76 7 102 -5 20 -5 37 -1 37 4
0 11 -20 14 -45z m329 15 c-5 -19 -23 -39 -23 -25 0 9 20 45 24 45 2 0 2 -9
-1 -20z m954 -62 c-2 -13 -4 -3 -4 22 0 25 2 35 4 23 2 -13 2 -33 0 -45z
m-292 32 c3 -6 -1 -7 -9 -4 -18 7 -21 14 -7 14 6 0 13 -4 16 -10z m-1024 -75
c-15 -60 -14 -110 3 -124 32 -26 45 -74 35 -126 -5 -27 -14 -54 -19 -59 -6 -6
-6 3 0 25 17 57 12 102 -15 141 -14 21 -25 51 -25 69 0 44 24 158 28 135 2
-10 -1 -38 -7 -61z m1096 33 c-3 -8 -6 -5 -6 6 -1 11 2 17 5 13 3 -3 4 -12 1
-19z m-526 -39 c-5 -26 -9 -34 -10 -19 -1 27 9 73 15 67 2 -2 0 -23 -5 -48z
m-1209 -79 c27 -31 63 -26 78 10 7 17 16 33 21 36 5 2 1 -12 -7 -32 -12 -28
-13 -43 -5 -67 15 -42 13 -47 -5 -14 -12 21 -19 26 -28 18 -10 -8 -18 -6 -31
9 -10 11 -24 20 -32 20 -8 0 -12 4 -9 9 6 8 -21 69 -35 81 -10 9 -18 38 -11
44 3 4 15 -16 26 -44 12 -27 29 -59 38 -70z m2262 80 c-15 -22 -29 -40 -31
-40 -5 0 3 15 29 53 30 43 31 32 2 -13z m807 -2 c15 -28 5 -21 -21 15 -15 20
-17 27 -6 18 9 -8 22 -23 27 -33z m-1824 10 c-3 -8 -6 -5 -6 6 -1 11 2 17 5
13 3 -3 4 -12 1 -19z m730 -10 c-3 -8 -6 -5 -6 6 -1 11 2 17 5 13 3 -3 4 -12
1 -19z m-2347 8 c0 -2 -8 -10 -17 -17 -16 -13 -17 -12 -4 4 13 16 21 21 21 13z
m2317 -18 c-3 -8 -6 -5 -6 6 -1 11 2 17 5 13 3 -3 4 -12 1 -19z m-710 -35 c-3
-10 -5 -4 -5 12 0 17 2 24 5 18 2 -7 2 -21 0 -30z m697 -17 c-3 -15 -8 -25
-11 -23 -2 3 -1 17 3 31 3 15 8 25 11 23 2 -3 1 -17 -3 -31z m33 12 c-3 -8 -6
-5 -6 6 -1 11 2 17 5 13 3 -3 4 -12 1 -19z m174 5 c13 -16 12 -17 -3 -4 -17
13 -22 21 -14 21 2 0 10 -8 17 -17z m958 -23 c0 -10 -3 -8 -9 5 -12 27 -12 43
0 25 5 -8 9 -22 9 -30z m-1902 -47 c-2 -16 -4 -5 -4 22 0 28 2 40 4 28 2 -13
2 -35 0 -50z m1853 23 c0 -5 -7 -1 -15 10 -8 10 -14 24 -14 29 0 6 6 1 14 -9
8 -11 15 -24 15 -30z m-1616 19 c-7 -16 -24 -21 -24 -6 0 8 7 13 27 20 1 1 0
-6 -3 -14z m728 -20 c-2 -14 -6 -25 -8 -25 -2 0 -4 11 -4 25 0 14 4 25 9 25 4
0 6 -11 3 -25z m31 10 c-3 -9 -8 -14 -10 -11 -3 3 -2 9 2 15 9 16 15 13 8 -4z
m914 -27 c-3 -8 -6 -5 -6 6 -1 11 2 17 5 13 3 -3 4 -12 1 -19z m-1182 -68
c-13 -41 -24 -70 -24 -64 -1 16 40 147 44 142 2 -2 -7 -37 -20 -78z m-62 20
c4 -30 3 -38 -3 -25 -8 19 -14 83 -6 74 2 -2 6 -24 9 -49z m927 -11 c0 -26
-15 -31 -16 -6 0 12 -4 31 -8 42 -8 20 -7 20 8 1 9 -11 16 -28 16 -37z m-2553
9 c-3 -7 -5 -2 -5 12 0 14 2 19 5 13 2 -7 2 -19 0 -25z m1910 10 c-3 -8 -6 -5
-6 6 -1 11 2 17 5 13 3 -3 4 -12 1 -19z m983 2 c6 -11 8 -20 6 -20 -3 0 -10 9
-16 20 -6 11 -8 20 -6 20 3 0 10 -9 16 -20z m-2413 -52 c-3 -8 -6 -5 -6 6 -1
11 2 17 5 13 3 -3 4 -12 1 -19z m2024 -41 c-13 -13 -15 1 -4 30 7 17 8 17 11
-1 2 -10 -1 -23 -7 -29z m-2641 -49 c-1 -26 -3 -30 -10 -16 -6 9 -7 23 -4 32
9 25 14 19 14 -16z m1905 -3 c22 -1 47 -5 55 -11 8 -5 24 -14 35 -19 21 -11
69 -136 62 -163 -2 -11 -6 -6 -11 13 -16 65 -29 84 -76 113 -41 26 -135 72
-146 72 -1 0 -4 -12 -6 -27 -3 -23 -5 -20 -8 13 l-5 40 30 -15 c16 -8 48 -16
70 -16z m711 3 c-18 -26 -22 -17 -5 14 6 11 13 17 16 15 3 -3 -2 -16 -11 -29z
m174 -39 c0 -14 -5 -19 -14 -16 -9 4 -16 -1 -19 -11 -3 -15 -5 -15 -12 2 -6
13 -3 23 10 32 26 19 35 17 35 -7z m-190 7 c0 -2 -8 -10 -17 -17 -16 -13 -17
-12 -4 4 13 16 21 21 21 13z m-2395 -26 c3 -5 1 -10 -4 -10 -6 0 -11 5 -11 10
0 6 2 10 4 10 3 0 8 -4 11 -10z m2345 -25 c-7 -9 -15 -13 -17 -11 -7 7 7 26
19 26 6 0 6 -6 -2 -15z m-2515 -22 c17 -25 19 -25 31 -9 12 17 13 17 11 -3 -1
-11 -5 -21 -10 -21 -5 0 -5 -9 -2 -21 l7 -21 -20 20 c-26 26 -56 82 -43 82 5
0 17 -12 26 -27z m1767 -8 c9 22 17 34 17 27 1 -18 -27 -71 -52 -96 -19 -20
-20 -20 -12 -1 4 11 10 40 13 65 l6 45 6 -40 5 -40 17 40z m-1869 -11 c23 -15
53 -42 65 -60 28 -43 22 -43 -21 -1 -19 17 -49 44 -66 60 -39 34 -34 34 22 1z
m316 2 c-1 -18 -17 -52 -20 -41 -8 34 -4 62 8 58 7 -3 13 -10 12 -17z m2038 2
c-3 -8 -6 -5 -6 6 -1 11 2 17 5 13 3 -3 4 -12 1 -19z m138 12 c-3 -5 -11 -10
-16 -10 -6 0 -7 5 -4 10 3 6 11 10 16 10 6 0 7 -4 4 -10z m639 -52 c-8 -15
-17 -28 -20 -28 -2 0 0 9 6 19 5 11 10 30 10 43 0 18 2 20 9 9 6 -10 4 -25 -5
-43z m-2964 -43 c0 -13 -64 -46 -77 -40 -15 5 -14 8 7 19 14 7 24 17 23 23 -1
6 9 8 22 5 14 -2 25 -6 25 -7z m679 -26 c58 -12 85 -39 96 -95 9 -49 -9 -89
-48 -107 -42 -19 -272 -30 -286 -14 -7 9 26 12 131 12 l140 0 24 28 c39 46 27
123 -23 146 -75 34 -200 15 -254 -39 -32 -31 -38 -27 -13 8 19 28 63 51 117
62 59 11 60 11 116 -1z m1274 -54 c4 -39 3 -50 -2 -30 -9 31 -14 102 -7 94 2
-2 6 -31 9 -64z m975 24 c-3 -20 -5 -19 -9 9 -3 20 -2 29 4 23 5 -5 7 -19 5
-32z m-1718 -19 c47 -16 76 -30 64 -30 -11 0 -47 9 -79 20 -118 41 -230 13
-288 -70 -12 -17 -17 -20 -17 -9 0 24 37 67 73 86 81 41 137 42 247 3z m210
-98 c0 -9 -80 63 -85 77 -3 9 14 -4 39 -29 25 -24 46 -46 46 -48z m1290 13 c0
4 10 -5 22 -21 13 -16 31 -38 40 -48 10 -11 18 -23 18 -28 0 -4 11 -10 25 -14
23 -6 24 -7 8 -31 -10 -14 -19 -21 -21 -14 -2 6 -10 11 -17 11 -8 0 -15 13
-17 32 -2 26 -13 38 -55 66 -40 27 -48 38 -40 47 8 9 16 10 25 3 6 -6 12 -7
12 -3z m-2726 -44 c-3 -3 -15 6 -27 18 l-22 24 27 -19 c14 -10 24 -21 22 -23z
m903 -3 c-3 -8 -6 -5 -6 6 -1 11 2 17 5 13 3 -3 4 -12 1 -19z m1331 -10 c18
-18 15 -36 -9 -48 -24 -13 -49 2 -49 30 0 28 37 39 58 18z m-1319 -70 c1 -5
-3 -8 -9 -8 -5 0 -10 12 -9 28 0 24 1 25 9 7 5 -11 9 -23 9 -27z m-1066 25
c-7 -2 -21 -2 -30 0 -10 3 -4 5 12 5 17 0 24 -2 18 -5z m2197 -37 c33 -46 59
-59 120 -59 l35 0 -33 -4 c-25 -3 -32 -8 -28 -19 5 -13 3 -13 -16 1 -13 8 -30
15 -40 15 -10 0 -18 5 -18 12 0 6 -10 25 -23 42 -30 39 -39 56 -33 56 3 0 19
-20 36 -44z m-2239 6 c-13 -2 -27 0 -32 5 -6 6 3 7 23 4 28 -4 29 -6 9 -9z
m1958 -63 c-82 -94 -151 -146 -226 -169 -80 -25 -107 -25 -38 -1 86 31 128 57
188 119 l59 59 -39 7 c-21 4 -51 13 -68 21 -16 9 -21 12 -10 9 11 -4 43 -9 72
-12 42 -3 58 0 80 16 15 11 30 19 32 17 2 -2 -21 -32 -50 -66z m-1642 55 c-3
-3 -12 -4 -19 -1 -8 3 -5 6 6 6 11 1 17 -2 13 -5z m2523 -19 c24 -13 24 -14 4
-15 -38 0 -84 12 -78 21 8 13 46 10 74 -6z m-2690 -1 c0 -8 -19 -13 -24 -6 -3
5 1 9 9 9 8 0 15 -2 15 -3z m2586 -17 c-46 -29 -86 -71 -86 -91 -1 -11 -7 -32
-15 -46 -13 -23 -14 -22 -8 27 4 38 2 58 -8 69 -13 16 -12 16 10 4 22 -11 27
-10 40 7 20 24 51 42 71 42 11 0 10 -3 -4 -12z m364 -43 c0 -23 -1 -23 -18 -6
-21 19 -18 44 4 35 8 -3 14 -16 14 -29z m-503 20 c-3 -3 -12 -4 -19 -1 -8 3
-5 6 6 6 11 1 17 -2 13 -5z m-102 -13 l40 -9 -40 0 c-22 0 -51 4 -65 8 l-25 8
25 0 c14 1 43 -3 65 -7z m-2202 -38 c-7 -2 -19 -2 -25 0 -7 3 -2 5 12 5 14 0
19 -2 13 -5z m2781 -88 c-9 -14 -18 -25 -21 -25 -5 0 5 18 20 38 17 22 18 13
1 -13z m-1654 -29 c0 -2 -8 -10 -17 -17 -16 -13 -17 -12 -4 4 13 16 21 21 21
13z m203 -23 c-7 -2 -21 -2 -30 0 -10 3 -4 5 12 5 17 0 24 -2 18 -5z m634 -27
c-20 -29 -93 -66 -133 -66 -16 1 -45 10 -64 21 -34 19 -24 18 31 -4 42 -17 98
0 138 41 40 42 52 45 28 8z m413 14 c0 -5 -10 -10 -22 -9 -22 0 -22 1 -3 9 11
5 21 9 23 9 1 1 2 -3 2 -9z m365 -50 c-10 -11 -23 -20 -29 -20 -6 0 0 9 14 20
32 25 38 25 15 0z m-419 -24 c-6 -26 -58 -60 -78 -54 -6 2 3 10 20 17 17 7 37
26 44 42 15 33 23 30 14 -5z m180 -18 c-9 -42 -56 -76 -88 -66 -7 3 3 10 23
17 21 7 41 22 47 36 12 27 22 33 18 13z m-143 -35 c-7 -2 -19 -2 -25 0 -7 3
-2 5 12 5 14 0 19 -2 13 -5z m317 3 c0 -2 -8 -10 -17 -17 -16 -13 -17 -12 -4
4 13 16 21 21 21 13z m-2080 -28 c10 -6 7 -7 -10 -2 -14 3 -32 11 -40 16 -10
6 -7 7 10 2 14 -3 32 -11 40 -16z m1799 -1 c-2 -1 -13 -9 -24 -17 -19 -14 -19
-14 -6 3 7 9 18 17 24 17 6 0 8 -1 6 -3z m-1724 -22 c30 -8 40 -14 25 -14 -14
0 -38 6 -55 14 -39 17 -32 17 30 0z m1741 -21 c-30 -21 -42 -17 -15 5 13 11
26 17 29 14 3 -2 -4 -11 -14 -19z m-1883 9 c-13 -2 -33 -2 -45 0 -13 2 -3 4
22 4 25 0 35 -2 23 -4z m1994 -19 c-3 -3 -12 -4 -19 -1 -8 3 -5 6 6 6 11 1 17
-2 13 -5z m-1744 -11 c-7 -2 -19 -2 -25 0 -7 3 -2 5 12 5 14 0 19 -2 13 -5z
m-360 -10 c-7 -2 -21 -2 -30 0 -10 3 -4 5 12 5 17 0 24 -2 18 -5z m280 -20
c-13 -2 -33 -2 -45 0 -13 2 -3 4 22 4 25 0 35 -2 23 -4z m912 -163 c3 -6 -1
-7 -9 -4 -18 7 -21 14 -7 14 6 0 13 -4 16 -10z m25 -62 c0 -13 -5 -9 -31 19
l-24 26 27 -19 c15 -10 28 -22 28 -26z m-6 -38 c26 -27 44 -50 39 -50 -4 0
-27 23 -51 50 -55 64 -49 64 12 0z m37 13 c13 -16 12 -17 -3 -4 -10 7 -18 15
-18 17 0 8 8 3 21 -13z"/>
<path d="M4650 1969 c0 -5 5 -7 10 -4 6 3 10 8 10 11 0 2 -4 4 -10 4 -5 0 -10
-5 -10 -11z"/>
<path d="M2140 1957 c0 -27 13 -36 26 -16 3 6 -1 18 -10 27 -15 15 -16 14 -16
-11z"/>
<path d="M3415 1636 c-55 -18 -116 -42 -135 -54 -19 -11 -73 -30 -119 -41 -47
-12 -87 -23 -89 -26 -10 -10 69 -35 108 -35 23 0 74 11 113 24 40 13 83 27 97
30 14 3 61 28 105 56 44 28 92 54 107 57 15 3 25 9 22 14 -11 19 -112 6 -209
-25z"/>
<path d="M2710 1553 c-78 -14 -14 -41 120 -49 88 -6 161 4 161 21 0 20 -208
41 -281 28z"/>
<path d="M2950 1488 c-19 -5 -39 -13 -43 -18 -11 -10 48 -66 97 -91 l39 -21
-8 58 c-11 92 -12 93 -85 72z"/>
<path d="M3055 1438 c9 -78 20 -108 40 -108 25 0 21 110 -6 144 -33 42 -42 33
-34 -36z"/>
<path d="M3520 1168 c0 -18 49 -62 59 -53 3 3 -9 20 -27 38 -24 23 -32 27 -32
15z"/>
<path d="M3213 1085 c0 -22 2 -30 4 -17 2 12 2 30 0 40 -3 9 -5 -1 -4 -23z"/>
</g>
</svg>
